<?xml version="1.0" standalone="no"?>
<!DOCTYPE svg PUBLIC "-//W3C//DTD SVG 20010904//EN"
        "http://www.w3.org/TR/2001/REC-SVG-20010904/DTD/svg10.dtd">
<svg version="1.0" xmlns="http://www.w3.org/2000/svg"
     width="350.000000pt" height="350.000000pt" viewBox="0 0 350.000000 350.000000"
     preserveAspectRatio="xMidYMid meet">
    <metadata>
        Created by potrace 1.11, written by Peter Selinger 2001-2013
    </metadata>
    <g transform="translate(0.000000,350.000000) scale(0.100000,-0.100000)"
       fill="#000000" stroke="none">
        <path d="M2580 3334 c-366 -47 -915 -70 -1258 -54 -134 6 -245 10 -247 8 -5
-4 -24 -631 -20 -636 13 -15 134 -35 243 -39 102 -4 132 -9 132 -19 0 -67
-104 -690 -201 -1203 -44 -234 -212 -1067 -237 -1178 -10 -42 -9 -42 17 -37
14 2 212 33 440 69 227 35 414 65 415 67 2 2 17 111 35 243 67 488 219 1433
287 1786 l46 236 121 17 c161 22 245 44 251 65 3 9 37 168 75 354 l69 337 -32
-1 c-17 -1 -78 -7 -136 -15z"/>
    </g>
</svg>
